# xmcd
#
# Track frame offsets:
#	150
#	27636
#	45654
#	67125
#	81193
#	99054
#	121628
#	138673
#	153303
#	170414
#	190954
#	205719
#	220524
#	231350
#	243971
#	261633
#	279044
#	297023
#	315908
#	335911
#
# Disc length: 4741 seconds
#
# Revision: 0
# Processed by: cddbd v1.5.2PL0 Copyright (c) Steve Scherf et al.
# Submitted via: EasyCDDAExtractor 16.0.6.1
#
DISCID=1e128314
DTITLE=Александр Новиков - Юбилейный
DYEAR=2004
DGENRE=Шансон
TTITLE0=Батум(интродукция)
TTITLE1=Девочка из лета
TTITLE2=Рыжая
TTITLE3=Катька
TTITLE4=На прощанье
TTITLE5=Женщина ушла
TTITLE6=Школьный роман
TTITLE7=Голубок
TTITLE8=Я тебя люблю
TTITLE9=Освободился
TTITLE10=Рожи
TTITLE11=Мама-джан
TTITLE12=Ваня-Ваня
TTITLE13=Золотая Рыба
TTITLE14=Красивоглазая
TTITLE15=Помнишь, девочка?..
TTITLE16=Когда мне было 20 лет
TTITLE17=Шансоньетка
TTITLE18=Представление участников концерта
TTITLE19=С красавицей в обнимку
EXTD=
EXTT0=
EXTT1=
EXTT2=
EXTT3=
EXTT4=
EXTT5=
EXTT6=
EXTT7=
EXTT8=
EXTT9=
EXTT10=
EXTT11=
EXTT12=
EXTT13=
EXTT14=
EXTT15=
EXTT16=
EXTT17=
EXTT18=
EXTT19=
PLAYORDER=
